PathFileType	4	(X/Y/Z)	Kaydara																																																																																																																									
DataRate	CameraRate	NumFrames	NumMarkers	Units	OrigDataRate	OrigDataStartFrame	OrigNumFrames																																																																																																																					
30	30	7	41	mm	30	126	167																																																																																																																					
Frame#	Time	PAIB_LFHD			PAIB_RFHD			PAIB_LBHD			PAIB_RBHD			PAIB_LFTShould			PAIB_RFTShould			PAIB_LRRShould			PAIB_RRRShould			PAIB_T10			PAIB_STRN			PAIB_TRUN			PAIB_LSHO			PAIB_LUPA			PAIB_LELB			PAIB_LFRM			PAIB_LWRA			PAIB_LWRB			PAIB_LFIN			PAIB_RSHO			PAIB_RUPA			PAIB_RELB			PAIB_RFRM			PAIB_RWRA			PAIB_RWRB			PAIB_RFIN			PAIB_LFWT			PAIB_RFWT			PAIB_LBWT			PAIB_RBWT			PAIB_LTHI			PAIB_LKNE			PAIB_LSHN			PAIB_LANK			PAIB_LHEE			PAIB_LTOE			PAIB_RTHI			PAIB_RKNE			PAIB_RSHN			PAIB_RANK			PAIB_RHEE			PAIB_RTOE		
		X1	Y1	Z1	X2	Y2	Z2	X3	Y3	Z3	X4	Y4	Z4	X5	Y5	Z5	X6	Y6	Z6	X7	Y7	Z7	X8	Y8	Z8	X9	Y9	Z9	X10	Y10	Z10	X11	Y11	Z11	X12	Y12	Z12	X13	Y13	Z13	X14	Y14	Z14	X15	Y15	Z15	X16	Y16	Z16	X17	Y17	Z17	X18	Y18	Z18	X19	Y19	Z19	X20	Y20	Z20	X21	Y21	Z21	X22	Y22	Z22	X23	Y23	Z23	X24	Y24	Z24	X25	Y25	Z25	X26	Y26	Z26	X27	Y27	Z27	X28	Y28	Z28	X29	Y29	Z29	X30	Y30	Z30	X31	Y31	Z31	X32	Y32	Z32	X33	Y33	Z33	X34	Y34	Z34	X35	Y35	Z35	X36	Y36	Z36	X37	Y37	Z37	X38	Y38	Z38	X39	Y39	Z39	X40	Y40	Z40	X41	Y41	Z41
																																																																																																																												
126	4.177	288.76345	1643.17322	859.82262	104.52066	1644.53705	852.2506	301.11139	1609.02985	735.55519	98.65817	1622.92694	738.58986	264.41214	1374.81781	851.16867	142.24326	1372.67548	859.23912	263.33035	1438.18787	706.98387	110.75932	1439.34387	725.92537	176.20375	1281.35132	633.20446	213.25666	1308.35815	891.13686	212.29733	1206.63086	912.5058	389.27563	1384.72961	761.2587	438.2196	1159.91821	715.96077	445.57175	1084.64752	660.33791	470.75367	965.66078	678.15033	424.03286	835.25299	750.50125	453.72234	831.33133	675.14778	471.81721	782.90131	727.76154	13.24705	1380.14191	815.75195	-64.3999	1211.52634	813.49449	-95.78114	1098.49312	835.98595	-101.70967	984.88297	923.38188	-22.57595	935.58357	1048.71193	-94.68104	899.70497	1019.09195	-79.44376	900.92102	1091.70525	297.64874	924.73831	874.83475	63.49631	920.49141	867.10793	253.35846	960.75584	655.26726	109.15454	973.72238	652.75116	297.99046	670.15892	739.4841	327.4522	475.90809	943.51692	308.60937	304.26426	1018.57033	300.13159	99.43329	1007.10632	236.85877	77.40473	973.65211	309.68636	103.77871	1182.28081	60.60307	702.29256	625.20847	67.04485	449.22966	658.56438	138.34048	267.36485	641.35269	126.5584	85.55967	517.6836	189.8806	104.96149	469.82006	140.71023	47.84827	681.6069
127	4.21	292.51719	1634.96979	906.02547	108.28344	1636.46744	898.96744	304.59311	1600.30365	781.87943	101.67244	1614.49661	785.51521	267.93545	1365.98709	899.11339	145.61213	1364.59595	906.9133	267.16665	1429.02985	754.8983	114.36703	1430.95551	772.84767	179.78777	1272.25327	681.38474	216.29246	1300.04913	939.17282	214.8354	1198.38402	960.92812	392.9351	1375.59814	809.17686	440.01835	1150.94154	760.76294	445.82939	1076.16432	704.29047	471.60908	957.1534	718.87131	427.48692	824.84764	789.8645	454.95018	823.02109	713.58406	474.52362	772.96432	763.7262	17.52741	1372.31903	863.19756	-60.59784	1204.54613	865.52818	-92.83077	1092.6442	891.4431	-98.47665	982.72667	983.50632	-18.31145	938.30444	1109.99207	-90.87079	901.58859	1082.5177	-74.91322	905.83992	1154.94041	298.35958	915.87601	925.53093	64.05863	911.4357	915.04997	258.33191	952.49916	705.746	114.11451	966.60194	701.60851	298.49268	661.60522	786.55533	325.20912	457.94655	978.25722	304.41589	305.62592	1077.90672	294.57081	100.01139	1090.4097	230.12918	75.2102	1059.08676	304.31763	123.59804	1265.77621	64.70865	701.05103	666.65115	67.33369	446.39626	687.0295	137.63216	265.00921	658.89893	125.65662	92.31805	521.90155	188.98548	115.21049	475.62019	140.69353	47.73984	681.82045
128	4.243	296.97725	1628.78922	952.85309	112.68708	1630.57541	945.95856	308.94554	1593.09082	829.03763	106.01899	1607.56821	832.67998	271.9125	1359.00467	948.52631	149.37292	1358.11279	956.05713	271.54066	1422.01431	804.29451	118.46589	1424.42001	821.19102	183.74088	1265.22995	730.91423	220.1376	1293.24173	988.65959	218.38915	1191.61064	1010.39879	396.98231	1367.89063	858.95897	443.14247	1142.98775	809.77112	448.74416	1068.63861	752.90726	474.52629	949.65431	765.77477	431.3324	816.16295	834.88304	458.15243	815.64819	758.53737	477.96223	764.4944	807.15332	21.83026	1365.78644	911.48552	-55.92715	1198.31924	915.16525	-88.80534	1087.09381	942.43118	-94.1941	979.11446	1037.08099	-14.24731	938.02856	1164.63745	-86.4805	900.42313	1137.88757	-70.8721	906.52222	1210.10742	300.37655	910.55748	976.77582	65.83521	902.87857	964.64073	262.44864	946.22963	756.46942	118.23586	959.48402	752.08931	304.41496	656.30859	842.68875	327.89165	461.08643	1030.06721	297.93423	294.39245	1124.94888	287.39725	89.15635	1124.78851	225.93971	66.4503	1089.14986	285.78121	102.8524	1300.86884	68.11926	697.323	713.34625	66.8293	442.79072	726.87416	136.49977	263.5177	682.43347	120.88714	103.89086	529.71928	183.26445	131.44058	484.56928	140.39266	47.48492	682.37724
129	4.277	301.67881	1627.61276	1000.43556	117.48592	1629.57779	993.18092	313.97455	1590.35889	876.99127	111.03008	1604.89655	880.19516	277.17789	1355.41061	999.03069	154.11448	1355.22141	1006.7688	276.40192	1419.15192	854.15756	122.73597	1422.2168	871.35742	187.85295	1262.67502	781.56822	224.79527	1290.18723	1039.32198	222.73712	1188.58055	1060.96901	401.52626	1363.55148	908.99574	446.8399	1137.42561	862.85355	453.39821	1062.80052	806.52596	479.10976	944.34158	818.9856	435.06428	810.37453	886.19057	463.38657	810.59662	810.4248	482.17545	758.94897	859.0345	26.3412	1361.91879	961.69563	-51.05762	1193.79761	962.51762	-84.03921	1082.77435	988.6866	-89.32713	974.69894	1083.25775	-10.3541	934.57863	1211.41319	-81.84504	896.25053	1184.0097	-67.22534	902.89314	1256.17134	304.55982	911.60095	1028.24837	70.21208	898.76587	1017.14523	265.47838	945.09186	807.1373	120.03808	955.07347	803.24051	307.925	656.97464	897.36511	323.56079	466.11774	1096.94878	288.51814	292.10869	1171.76216	286.51711	87.61811	1150.98923	226.81526	69.14857	1108.92731	278.93967	68.62913	1329.98627	71.09417	690.16869	767.29057	66.85575	437.16545	780.70625	135.63655	263.89248	714.99634	114.62578	122.82784	544.05594	176.23768	157.0422	501.89003	140.01203	46.77151	683.40164
130	4.31	306.53187	1631.66962	1048.14316	122.32775	1633.43964	1040.36377	319.15405	1592.48978	925.40451	116.21942	1607.10617	927.74872	281.62592	1358.93402	1049.22897	159.27094	1358.9389	1057.40433	280.54447	1422.24747	904.68689	126.74281	1426.15402	922.30637	190.92999	1266.29417	832.1402	229.5895	1293.52646	1089.50661	227.05524	1191.98524	1111.43761	405.70549	1365.42084	959.29832	450.30537	1138.09898	918.62518	457.95582	1062.37144	864.20227	483.99925	944.84772	878.19473	439.02512	810.7383	944.28268	469.75899	811.02844	869.58633	487.201	759.63699	919.0696	30.4551	1364.54651	1013.00819	-45.57489	1195.45082	1007.74185	-78.16685	1083.6174	1029.47403	-83.80065	972.29546	1120.20126	-6.88555	928.9061	1248.40675	-77.49886	890.66437	1218.5408	-64.59411	895.98061	1291.07468	309.92893	920.00984	1077.56752	76.05079	900.79407	1069.30885	264.83715	949.99924	856.33194	119.80947	954.07547	854.41605	311.54617	664.79752	946.89751	319.47306	471.71654	1153.77151	288.01966	290.25537	1208.95187	289.02914	88.8421	1165.79147	233.16065	75.15823	1117.59262	269.99548	51.88361	1339.4194	74.33618	681.4389	828.52158	61.86507	430.55737	854.79225	129.78683	268.50927	763.62167	109.97394	156.51904	570.42671	174.12228	198.43925	538.73035	140.11927	46.03338	679.00551
131	4.343	310.76736	1635.50507	1095.65399	126.61953	1637.84103	1087.63321	323.54836	1595.35461	973.26088	120.48934	1610.7309	975.14648	284.34626	1363.98087	1097.11945	162.47967	1364.57031	1105.15419	284.0143	1426.55838	952.87148	130.37331	1431.48666	969.50294	193.83257	1271.23016	878.46344	232.20179	1299.0036	1137.71187	229.71434	1197.50336	1159.91341	408.8644	1370.70221	1009.3425	453.37673	1142.86972	975.21301	462.38449	1066.20331	921.59584	489.01196	949.24423	939.77242	444.49841	816.57654	1009.66774	475.81429	815.04471	935.32486	493.13164	765.13748	986.45599	33.8669	1371.42303	1060.90088	-41.38922	1200.95566	1050.27313	-73.07361	1087.76291	1065.09865	-79.08494	971.08376	1149.53873	-3.66136	921.71211	1277.57805	-73.10706	884.06273	1243.51372	-62.32526	885.42099	1316.40991	316.49324	927.45087	1125.42244	82.52199	904.5269	1118.2946	267.09881	952.63863	903.94287	122.22986	954.03381	902.8672	315.74213	669.03534	992.30667	326.55739	480.55202	1193.25241	290.6336	285.92941	1232.3455	288.93702	88.80246	1172.93137	233.91907	78.71513	1122.21642	267.35737	45.73002	1344.70901	76.30413	665.47539	897.21626	56.99492	422.72076	943.00491	122.66706	276.38107	832.14775	106.68932	201.51083	622.33906	170.27676	246.05692	603.32905	142.59866	53.14375	685.8358
132	4.377	313.60931	1640.82687	1142.24709	129.52643	1644.12491	1133.94127	326.59695	1601.94427	1019.58656	123.68301	1618.03116	1021.17393	285.32309	1369.89563	1144.84085	162.97443	1370.59448	1150.52071	287.85492	1432.33475	1000.17006	133.61959	1436.82877	1014.05884	199.47329	1275.9893	926.18042	232.24897	1304.78027	1184.49532	229.473	1203.21823	1206.24031	411.19305	1376.21216	1059.79378	458.31402	1148.01193	1030.17097	468.44814	1070.06004	979.23195	494.83841	953.42216	1002.59239	450.12192	824.92935	1079.31976	481.17733	819.37363	1005.06905	499.12354	772.60857	1058.741	34.23451	1376.6684	1102.95212	-40.55246	1205.62004	1087.63199	-69.68792	1090.8931	1098.49228	-75.89901	969.41422	1175.41451	-1.22698	911.90681	1300.177	-70.45517	876.62033	1263.34732	-59.28751	871.76208	1336.03867	320.14805	931.80733	1171.7144	86.28016	909.08882	1163.78441	269.81689	958.62091	948.63228	124.30279	953.46809	947.10251	318.78729	675.2076	1028.97392	328.96812	481.91624	1219.99878	288.92906	281.35574	1247.33009	287.95813	88.92301	1175.40001	233.32758	80.76098	1123.274	266.23106	43.50155	1346.26389	78.76891	653.09288	967.09892	52.15116	421.98135	1032.93983	120.79433	287.5025	914.26819	106.34076	237.30881	699.54376	171.36517	281.13483	683.34724	129.43397	73.97845	754.35852
